<svg width="40" height="40" viewBox="0 0 40 40" fill="none" xmlns="http://www.w3.org/2000/svg">
  <circle cx="20" cy="20" r="18" fill="url(#paint0_linear)" />
  <path d="M12 20C12 15.5817 15.5817 12 20 12C24.4183 12 28 15.5817 28 20C28 24.4183 24.4183 28 20 28" stroke="white" stroke-width="2.5" stroke-linecap="round" />
  <path d="M20 28C17.7909 28 16 26.2091 16 24C16 21.7909 17.7909 20 20 20C22.2091 20 24 21.7909 24 24C24 26.2091 22.2091 28 20 28Z" fill="white" />
  <path d="M26 15L28 13M14 15L12 13" stroke="white" stroke-width="2" stroke-linecap="round" />
  <defs>
    <linearGradient id="paint0_linear" x1="6" y1="6" x2="32" y2="36" gradientUnits="userSpaceOnUse">
      <stop offset="0%" stop-color="#3B82F6" />
      <stop offset="100%" stop-color="#0C4A6E" />
    </linearGradient>
  </defs>
</svg> 